# xmcd CD database file
#
# Track frame offsets:
#	150
#	18980
#	41731
#	66037
#	89963
#	114580
#	127632
#	149017
#
# Disc length: 2337 seconds
#
# Revision: 0
# Processed by: cddbd v1.5.1PL0 Copyright (c) Steve Scherf et al.
# Submitted via: CDex 1.51
#
DISCID=70091f08
DTITLE=tom ball quarter - fishleather jacket
DYEAR=2005
DGENRE=Jazz
TTITLE0=fishleather jacket
TTITLE1=peter rabbit
TTITLE2=bluz for t man
TTITLE3=on second thought
TTITLE4=with grace
TTITLE5=the shell game
TTITLE6=exit 183
TTITLE7=yeah whatever
EXTD=YEAR: 2005
EXTT0=
EXTT1=
EXTT2=
EXTT3=
EXTT4=
EXTT5=
EXTT6=
EXTT7=
PLAYORDER=
